<svg width="104" height="94" viewBox="0 0 104 94" fill="none" xmlns="http://www.w3.org/2000/svg">
<rect x="10" width="94" height="94" fill="white"/>
<path d="M27.4638 70.0079C27.4518 69.6819 27.7843 69.5439 28.057 69.5979C29.4506 69.5999 30.8462 69.6039 32.2398 69.5959C33.5577 69.5779 34.9294 70.0079 35.8552 70.9819C36.8287 71.9499 37.2408 73.442 36.9063 74.776C36.4962 76.768 34.8279 78.422 32.845 78.824C31.6605 79.068 30.446 78.8579 29.2535 78.9899C28.8076 80.4 28.8474 81.93 28.4253 83.35C27.4399 83.498 26.4345 83.382 25.4391 83.408C25.4032 82.878 25.4868 82.352 25.5844 81.834C26.2215 77.892 26.8267 73.948 27.4638 70.0079ZM29.6457 76.028C30.6949 75.968 31.8257 76.2119 32.8112 75.7559C33.8763 75.2759 34.2665 73.5379 33.2312 72.8319C32.3095 72.3239 31.2026 72.5599 30.1972 72.5099C30.028 73.6839 29.8249 74.854 29.6457 76.028Z" fill="#002D82"/>
<path d="M38.1028 75.094C39.805 73.282 42.9466 72.78 44.8777 74.52C44.9175 74.274 44.9573 74.028 45.0011 73.782C45.9308 73.756 46.8646 73.716 47.7923 73.786C48.0511 73.986 47.8839 74.314 47.8739 74.578C47.3782 77.52 47.0039 80.486 46.4246 83.41C45.4869 83.396 44.5452 83.472 43.6135 83.368C43.5876 83.212 43.5359 82.898 43.508 82.742C42.3931 83.518 40.9478 83.866 39.6278 83.454C38.2641 83.118 37.0935 82.054 36.6973 80.692C36.1518 78.75 36.6913 76.538 38.1028 75.094ZM41.4972 76.302C40.2649 76.53 39.2834 77.74 39.4108 79.012C39.4088 80.232 40.683 81.116 41.8317 80.946C43.2631 80.85 44.4457 79.428 44.1948 77.99C44.0435 76.754 42.6519 75.992 41.4972 76.302Z" fill="#002D82"/>
<path d="M48.8196 73.834C49.7851 73.674 50.7865 73.756 51.7621 73.786L51.8676 73.88C52.433 75.472 52.8451 77.116 53.3806 78.718C54.38 77.082 55.2819 75.376 56.3589 73.792C57.4399 73.71 58.5309 73.76 59.6159 73.78C59.5284 74.044 59.4408 74.312 59.2954 74.552C57.1791 78.036 55.0649 81.522 52.9605 85.012C52.7276 85.378 52.5385 85.78 52.2339 86.094C51.563 86.24 50.8582 86.12 50.1754 86.162C49.7712 86.122 49.2934 86.276 48.9629 85.974C49.7055 84.618 50.5795 83.336 51.3758 82.008C50.5536 79.542 49.7792 77.06 48.9669 74.59C48.8992 74.344 48.7798 74.096 48.8196 73.834Z" fill="#002D82"/>
<path d="M61.0274 70.2C61.0752 69.992 61.0931 69.73 61.3101 69.622C62.2418 69.56 63.1775 69.618 64.1112 69.6C65.3814 69.62 66.7053 69.464 67.9118 69.96C69.4686 70.546 70.6551 72.116 70.6034 73.812C70.6173 76.314 68.5608 78.574 66.108 78.882C65.0151 79.078 63.8644 78.776 62.8013 79.064C62.5305 80.22 62.421 81.41 62.2139 82.58C62.1363 82.85 62.1801 83.206 61.9233 83.386C60.9717 83.46 60.0141 83.394 59.0624 83.416C59.0366 83.08 59.0366 82.742 59.0923 82.408C59.7473 78.34 60.3844 74.27 61.0274 70.2ZM63.2512 76.028C64.2605 75.982 65.3217 76.172 66.2912 75.818C67.43 75.394 67.9157 73.586 66.8387 72.836C65.9209 72.322 64.81 72.564 63.8066 72.506C63.6255 73.68 63.4224 74.852 63.2512 76.028Z" fill="#0070E0"/>
<path d="M83.9679 69.594C84.9773 69.642 86.0085 69.482 87 69.724V70.01C86.2355 74.468 85.6283 78.956 84.824 83.408C83.8345 83.398 82.8371 83.486 81.8536 83.354C81.7382 82.84 81.9034 82.322 81.9691 81.814C82.6659 77.746 83.1915 73.646 83.9679 69.594Z" fill="#0070E0"/>
<path d="M71.9313 74.862C73.6633 73.258 76.6257 72.844 78.4573 74.516C78.513 74.268 78.5688 74.022 78.6245 73.776C79.5861 73.744 80.5497 73.7499 81.5113 73.7699C81.5232 74.6959 81.2962 75.602 81.1688 76.514C80.7826 78.808 80.488 81.1179 80.042 83.3999C79.0964 83.4239 78.1507 83.4179 77.207 83.4119C77.1812 83.1859 77.1573 82.9599 77.1334 82.7359C76.0762 83.4559 74.7404 83.8299 73.4762 83.5199C72.1423 83.2519 70.9379 82.3359 70.4282 81.0539C69.598 78.9399 70.2888 76.39 71.9313 74.862ZM75.1425 76.294C74.173 76.47 73.3269 77.222 73.084 78.186C72.7356 79.19 73.2691 80.3979 74.2646 80.7779C75.8553 81.4759 77.8441 80.142 77.8342 78.402C77.9218 77.014 76.4406 75.946 75.1425 76.294Z" fill="#0070E0"/>
<path d="M35.4572 36.5565C50.1921 36.5092 64.9269 36.546 79.6617 36.5381C79.5996 38.7569 79.6152 40.9783 79.654 43.197C64.9217 43.1707 50.1869 43.155 35.4547 43.2023C35.4676 40.9862 35.4728 38.7727 35.4572 36.5565Z" fill="#01559E"/>
<path d="M59.5022 45.8259C61.2483 44.4273 63.7162 44.3511 65.7314 45.1424C65.5529 45.9258 65.4158 46.7171 65.3278 47.5163C64.1844 47.1482 62.8237 46.5173 61.6933 47.2613C61.119 47.532 61.0983 48.4495 61.6183 48.7886C62.6789 49.6562 64.3112 49.8034 64.9734 51.1415C65.6641 52.7267 65.0536 54.8639 63.486 55.6684C61.5174 56.7304 59.1219 56.5622 57.0861 55.784C57.2516 54.977 57.4017 54.1647 57.5362 53.3523C58.9253 54.1357 60.9327 54.5327 62.2107 53.3392C62.2236 53.1631 62.252 52.8134 62.2676 52.6399C61.3673 51.3728 59.6264 51.1783 58.7106 49.9217C57.7768 48.6519 58.2786 46.7092 59.5022 45.8259Z" fill="#01559E"/>
<path d="M39.4695 44.9453C41.1121 44.7244 42.7807 44.8874 44.4337 44.8401C45.1865 44.7428 45.6547 45.5131 45.7582 46.1756C46.1695 48.2997 46.5886 50.4238 47.0128 52.5453C47.9855 49.9795 49.0047 47.4295 49.9179 44.8427C50.9371 44.8454 51.9563 44.8375 52.973 44.8375C51.4545 48.652 49.8687 52.4349 48.3321 56.2415C47.3284 56.2389 46.3247 56.2546 45.3184 56.2389C44.5527 53.1552 43.7223 50.0873 42.9333 47.0089C42.8298 46.7197 42.8143 46.3228 42.4884 46.1887C41.5493 45.6182 40.4991 45.2949 39.4695 44.9453Z" fill="#01559E"/>
<path d="M54.0905 44.798C55.0554 44.798 56.0203 44.798 56.9826 44.798C56.3799 48.6046 55.7719 52.4138 55.1563 56.2204C54.2146 56.273 53.273 56.2519 52.334 56.2335C52.9031 52.4191 53.5498 48.6151 54.0905 44.798Z" fill="#01559E"/>
<path d="M69.4643 45.7418C70.2171 44.4273 71.8933 45.0635 73.1014 44.9189C73.9318 48.6887 74.7337 52.4638 75.59 56.2283C74.6846 56.2231 73.7818 56.2283 72.8764 56.2257C72.7755 55.6815 72.6487 55.1426 72.5375 54.6011C71.2699 54.6037 70.0023 54.5905 68.7322 54.6037C68.5563 55.1505 68.3752 55.6973 68.2071 56.2467C67.1594 56.2467 66.1143 56.252 65.0666 56.252C66.5644 52.7635 67.982 49.2355 69.4643 45.7418ZM69.5367 52.2482C70.3955 52.2614 71.257 52.2693 72.1158 52.2745C71.7873 50.8707 71.482 49.4643 71.1561 48.0604C70.5663 49.4353 70.1188 50.8681 69.5367 52.2482Z" fill="#01559E"/>
<path d="M35.4676 57.9449C50.1636 57.9186 64.8596 57.9475 79.5556 57.9318C79.804 60.1216 79.4677 62.3377 79.7186 64.5197C64.9683 64.6275 50.2127 64.5434 35.4598 64.5618C35.4495 62.3561 35.465 60.1505 35.4676 57.9449Z" fill="#F9A61A"/>
<g clip-path="url(#clip0_16965_89923)">
<path d="M34.6353 15.7599C35.3741 15.7688 36.1128 15.7609 36.8515 15.7637C36.8548 16.0364 36.8389 16.3105 36.8731 16.5818C36.8787 16.9415 36.8726 17.3016 36.875 17.6613C36.9242 18.1422 36.8825 18.6267 36.9031 19.109C36.9359 19.3592 36.9167 19.6123 36.9223 19.8639C37.0461 19.8812 37.063 19.7451 37.1042 19.6614C37.6461 18.3615 38.1851 17.0603 38.734 15.7632C39.4976 15.7637 40.2612 15.7642 41.0248 15.7632C40.9409 16.1145 40.8162 16.4564 40.7656 16.8152C40.512 18.2844 40.2556 19.7531 40.002 21.2222C39.9476 21.5122 39.949 21.8088 39.9176 22.1016C39.4573 22.1016 38.997 22.1011 38.5362 22.1021C38.6253 21.747 38.7312 21.3953 38.78 21.0319C38.997 19.6679 39.2112 18.3035 39.4325 16.9401C39.3772 16.9803 39.3373 17.0322 39.3139 17.0958C38.6159 18.7652 37.924 20.4374 37.2162 22.1021C36.8131 22.0969 36.4095 22.11 36.0064 22.095C35.8864 20.3831 35.7814 18.6693 35.6464 16.9583C35.6337 16.9737 35.608 17.0046 35.5948 17.0196C35.3848 18.1244 35.172 19.2292 34.9634 20.3345C34.8458 20.9168 34.7295 21.501 34.6962 22.0955C34.273 22.11 33.8487 22.096 33.425 22.103C33.6973 21.1844 33.822 20.232 34.0133 19.2951C34.1966 18.3307 34.3784 17.3662 34.5608 16.4012C34.6034 16.1893 34.5936 15.9718 34.6353 15.7599Z" fill="white"/>
<path d="M61.7009 16.1047C62.0239 15.8811 62.4157 15.7992 62.7973 15.737C63.3218 15.6818 63.8553 15.7211 64.3676 15.8469C64.5814 15.8965 64.8237 15.9246 64.9971 16.0687C65.0164 16.2632 64.9437 16.4499 64.9142 16.6393C64.8687 16.854 64.9104 17.0837 64.8078 17.2853C64.6146 17.2151 64.4365 17.1042 64.2336 17.0626C63.8557 16.9789 63.4657 16.9733 63.0804 16.9803C62.8971 16.9817 62.7326 17.0706 62.5639 17.1304C62.3248 17.2202 62.1546 17.4204 62 17.6141C61.6428 18.0159 61.5092 18.5542 61.3915 19.065C61.2645 19.6576 61.5406 20.2774 61.9995 20.6535C62.269 20.8167 62.5662 20.9645 62.8901 20.9584C63.3584 20.9407 63.8262 20.8387 64.2528 20.6418C64.2837 20.696 64.3039 20.7592 64.2668 20.8172C64.1909 20.9842 64.1286 21.1568 64.0789 21.3331C64.0137 21.5422 64.0451 21.7653 64.0006 21.9776C63.5178 22.1858 62.9825 22.1549 62.4692 22.1437C62.0712 22.1091 61.6821 21.9964 61.3156 21.8406C61.1093 21.7321 60.8961 21.617 60.7456 21.4351C60.6246 21.2891 60.4582 21.1759 60.3893 20.993C60.2515 20.6909 60.1142 20.3836 60.065 20.0529C60.0167 19.8097 60.0326 19.5608 60.0303 19.3148C60.0528 18.6085 60.1995 17.8924 60.5557 17.2745C60.6561 17.1173 60.7592 16.9616 60.8656 16.8086C61.0957 16.5228 61.3831 16.2871 61.7009 16.1047Z" fill="white"/>
<path d="M50.2597 15.7889C50.7209 15.7847 51.1826 15.7885 51.6439 15.7871C51.6383 15.8151 51.6265 15.8722 51.6204 15.9003C51.5712 16.1421 51.5229 16.3844 51.4756 16.6267C51.4531 16.7371 51.4306 16.8474 51.4058 16.9569C51.68 16.9555 51.9542 16.9569 52.2284 16.956C52.16 17.3376 52.1019 17.7216 52.0329 18.1033C51.7606 18.1019 51.4883 18.1024 51.2164 18.1029C51.1456 18.499 51.0711 18.8943 51.0008 19.2905C50.9619 19.5196 50.9192 19.7484 50.8761 19.9771C50.8386 20.1689 50.8123 20.363 50.7992 20.558C50.7842 20.6857 50.8475 20.8167 50.9562 20.8855C51.2173 21.0015 51.5084 20.943 51.7798 20.9032C51.6898 21.2872 51.5886 21.6689 51.4953 22.0525C51.0983 22.1558 50.6839 22.1591 50.2765 22.1441C50.0792 22.1198 49.8917 22.045 49.7103 21.9678C49.5537 21.9023 49.4684 21.7456 49.4178 21.5931C49.2823 21.2451 49.3526 20.8644 49.4084 20.5075C49.6592 19.1908 49.9184 17.876 50.1706 16.5598C50.2161 16.3049 50.2259 16.0453 50.2597 15.7889Z" fill="white"/>
<path d="M76.7689 15.7642C77.2601 15.7623 77.7514 15.7651 78.2431 15.7632C78.1737 16.0556 78.0758 16.3409 78.0158 16.6356C77.7411 18.1754 77.4687 19.7161 77.1926 21.2559C77.1369 21.5263 77.1251 21.8032 77.1144 22.0787C76.6372 22.0778 76.1605 22.0787 75.6833 22.0778C75.7016 21.9533 75.7137 21.8275 75.7067 21.7017L75.7526 21.6989C75.7409 21.6264 75.7292 21.5534 75.7175 21.4814C75.6158 21.5324 75.5778 21.6502 75.4883 21.7148C75.1175 21.9622 74.6764 22.1021 74.2325 22.1269C73.7666 22.0679 73.2861 21.8967 72.9617 21.5445C72.8225 21.3471 72.6748 21.1488 72.6195 20.9089C72.5708 20.7073 72.4639 20.4893 72.5314 20.284L72.4691 20.3092C72.4808 20.1053 72.4794 19.9009 72.4709 19.697C72.4925 19.6857 72.5347 19.6637 72.5558 19.653L72.4789 19.6506C72.5333 19.4411 72.5323 19.2222 72.5998 19.0145C72.6326 18.6955 72.7869 18.4097 72.9326 18.1296C73.0522 17.9158 73.2341 17.7483 73.3864 17.5594C73.6259 17.2853 73.9751 17.1524 74.3047 17.021C74.6145 16.9307 74.9436 16.9228 75.2647 16.9368C75.5853 16.9939 75.8853 17.1478 76.1375 17.3517C76.1951 17.4485 76.2664 17.5402 76.3625 17.6029C76.4403 17.6118 76.4553 17.5206 76.4736 17.4644C76.5716 16.8975 76.6662 16.3301 76.7689 15.7642ZM75.0401 18.0879C74.66 18.1104 74.3633 18.413 74.1641 18.7133C74.0051 19.0561 73.8561 19.4229 73.8814 19.8087C73.8641 20.1909 73.963 20.6409 74.3155 20.8523C74.5095 20.9889 74.7584 20.958 74.9825 20.9524C75.343 20.8593 75.665 20.5992 75.7967 20.2475C75.9809 19.9477 75.9969 19.5889 76.0587 19.2517C76.0672 18.943 76.0939 18.573 75.8464 18.3414C75.657 18.1052 75.3233 18.0627 75.0401 18.0879Z" fill="white"/>
<path d="M42.4967 16.9335C42.9523 16.8928 43.4108 16.8643 43.8678 16.897C44.2344 16.9246 44.5859 17.0682 44.8789 17.2876C45.1836 17.5659 45.418 17.9925 45.3088 18.413C45.1438 19.4869 44.907 20.551 44.8034 21.6329C44.7913 21.7737 44.7852 21.9182 44.8213 22.0562C44.382 22.0529 43.9428 22.0557 43.5041 22.0548C43.5097 21.8827 43.5659 21.7077 43.5434 21.5384L43.4909 21.5057C43.3377 21.6432 43.1999 21.8041 43.0166 21.9042C42.4611 22.1703 41.7763 22.2629 41.2119 21.9711C40.9695 21.813 40.7558 21.5936 40.6578 21.3167C40.5627 21.0094 40.4952 20.6693 40.6109 20.3583C40.6245 20.1609 40.715 19.9813 40.8209 19.8176C40.9981 19.4902 41.2836 19.2203 41.6281 19.0743C41.9075 18.9144 42.2352 18.9013 42.5399 18.8185C43.0391 18.7446 43.5449 18.7558 44.0483 18.7567C44.0759 18.5051 43.9855 18.2137 43.7455 18.0944C43.4689 17.8891 43.1038 17.948 42.7813 17.9387C42.5145 17.9789 42.2413 17.9368 41.9774 18.0027C41.7669 18.0509 41.548 18.0701 41.3469 18.1543C41.4795 17.8227 41.5081 17.4648 41.5925 17.1206C41.8789 16.9966 42.1911 16.9718 42.4967 16.9335ZM42.4813 19.8269C42.3402 19.8517 42.2417 19.9565 42.1405 20.0472C41.9291 20.2292 41.8695 20.573 42.0074 20.8143C42.118 20.9565 42.2731 21.0852 42.4625 21.0912C42.8024 21.1104 43.1769 21.0272 43.4033 20.7545C43.6222 20.4589 43.7741 20.0973 43.7431 19.7236C43.7066 19.717 43.633 19.7044 43.5959 19.6978C43.2224 19.6618 42.8314 19.6824 42.4813 19.8269Z" fill="white"/>
<path d="M46.4286 17.2282C46.6616 17.0865 46.9086 16.9494 47.1875 16.934C47.4561 16.9345 47.7237 16.8849 47.9928 16.9176C48.1939 16.9499 48.3988 16.9172 48.6003 16.9443C48.8563 16.9639 49.1122 16.9911 49.3695 16.9789C49.2767 17.3344 49.1413 17.6796 49.1056 18.0477C48.6434 17.971 48.1719 17.9532 47.7031 17.9616C47.4753 17.9499 47.2738 18.1454 47.233 18.3606C47.2658 18.5893 47.4383 18.7923 47.6492 18.8812C48.0228 19.0379 48.4002 19.1997 48.7198 19.4528C48.95 19.6792 49.0916 19.9982 49.0878 20.3223C49.0756 20.6497 49.0517 20.9884 48.8984 21.2849C48.8113 21.4496 48.7447 21.6465 48.568 21.7368C48.0486 22.0731 47.4097 22.0923 46.8134 22.1484C46.2945 22.1582 45.77 22.1301 45.2656 22.001C45.3256 21.6385 45.3861 21.2756 45.358 20.9065C45.6303 20.9893 45.912 21.0581 46.1984 21.0543C46.5247 21.0992 46.8542 21.1025 47.1833 21.095C47.5072 21.0707 47.8433 20.7157 47.6745 20.3911C47.5634 20.2414 47.4214 20.1029 47.2334 20.0623C46.9892 19.9565 46.7384 19.8639 46.5083 19.7292C46.1806 19.5716 45.8684 19.2984 45.8023 18.9242C45.6636 18.3045 45.8937 17.5935 46.4286 17.2282Z" fill="white"/>
<path d="M53.6637 17.0537C54.0387 16.876 54.4648 16.8615 54.8717 16.8975C55.1975 16.9391 55.5214 17.0219 55.8097 17.1838C56.1772 17.434 56.502 17.8063 56.5559 18.2619C56.6183 18.5725 56.6248 18.892 56.5986 19.2067C56.5461 19.4472 56.4804 19.6852 56.4387 19.928C55.3915 19.9238 54.3443 19.9299 53.2972 19.9252C53.2259 20.0987 53.2437 20.2985 53.345 20.4565C53.4884 20.7858 53.8395 20.9626 54.177 21.0272C54.8942 21.1975 55.6311 20.9762 56.2864 20.6876C56.2081 21.0871 56.1462 21.4898 56.0651 21.8888C55.7089 22.0548 55.3147 22.1301 54.9228 22.1292C54.6415 22.1502 54.3575 22.1657 54.0776 22.1264C53.7612 22.0848 53.4336 22.0544 53.1453 21.907C52.9058 21.7863 52.6681 21.6455 52.4942 21.4379C52.1558 21.0323 51.9537 20.5071 51.9664 19.9771C51.9692 19.7493 51.9959 19.5225 52.0306 19.2975C52.1272 18.5435 52.4984 17.8166 53.0942 17.3348C53.2667 17.209 53.4729 17.1454 53.6637 17.0537ZM54.2722 17.9481C53.9356 18.0018 53.6642 18.2614 53.5137 18.5556C53.4856 18.6721 53.4045 18.869 53.5719 18.9158C54.1297 18.9242 54.6884 18.9252 55.2467 18.9149C55.31 18.7165 55.25 18.5005 55.1478 18.3265C54.9795 18.0248 54.6017 17.8957 54.2722 17.9481Z" fill="white"/>
<path d="M65.6806 17.1145C66.1297 16.9906 66.598 16.9354 67.0625 16.9265C67.5416 16.8835 68.0544 16.8839 68.4847 17.1285C68.6459 17.2272 68.8377 17.3002 68.9459 17.4639C69.0903 17.6665 69.2591 17.8723 69.2825 18.1305C69.2952 18.3157 69.2994 18.5037 69.2666 18.6875C69.102 19.5575 68.9656 20.4331 68.8142 21.306C68.8049 21.5553 68.7495 21.8064 68.7997 22.0548C68.3769 22.0548 67.9541 22.0548 67.5313 22.0548C67.5308 21.9061 67.5303 21.7578 67.5331 21.6095C67.3714 21.6147 67.2913 21.7966 67.1586 21.87C66.6538 22.1544 66.0345 22.2578 65.4711 22.11C64.9888 21.9879 64.6325 21.5473 64.5584 21.0651C64.5111 20.6731 64.5622 20.2531 64.7764 19.914C64.9859 19.5529 65.3263 19.2689 65.7233 19.1352C66.2263 18.9495 66.7677 18.9158 67.2992 18.9177C67.4863 18.884 67.6742 18.9018 67.8622 18.9209C68.0159 18.7315 67.9213 18.456 67.8036 18.2726C67.6789 18.0664 67.4174 18.0336 67.1994 18.0135C66.5666 17.9789 65.9328 18.0626 65.3206 18.2235C65.3909 17.9396 65.4556 17.6548 65.5278 17.3713C65.5583 17.2745 65.5503 17.1304 65.6806 17.1145ZM67.0241 19.8213C66.7236 19.8634 66.3927 19.8597 66.1494 20.0711C65.9234 20.2269 65.8583 20.53 65.9 20.7863C65.9277 20.9406 66.0777 21.0206 66.1981 21.0978C66.5206 21.2339 66.9088 21.1736 67.1919 20.9743C67.4788 20.7484 67.6156 20.3934 67.6916 20.0477C67.707 19.9696 67.7581 19.8602 67.6625 19.8139C67.4502 19.8078 67.2355 19.7989 67.0241 19.8213Z" fill="white"/>
<path d="M57.41 16.9564C57.8553 16.9564 58.3001 16.9569 58.7454 16.9564C58.7173 17.1604 58.6779 17.3629 58.6526 17.5678C58.6479 17.6379 58.6404 17.7666 58.7436 17.688C58.9114 17.4822 59.0825 17.2689 59.3037 17.1187C59.6089 16.9915 59.9464 16.9541 60.2754 16.9541C60.1671 17.1781 60.0715 17.4083 59.9698 17.6351C59.8634 17.8671 59.8231 18.1211 59.7453 18.3629C59.4875 18.3475 59.1921 18.3049 58.9732 18.4757C58.6812 18.6557 58.5425 18.9925 58.4754 19.3139C58.429 19.565 58.3723 19.8139 58.3198 20.0636C58.2542 20.3738 58.19 20.6839 58.1229 20.994C58.0615 21.2484 58.017 21.5066 57.9996 21.7681C57.9917 21.8729 57.9771 21.9777 57.9607 22.0815C57.4709 22.0745 56.9811 22.0801 56.4912 22.0782C56.5592 21.7892 56.6534 21.5066 56.7078 21.2148C56.9229 19.9977 57.1465 18.7825 57.3631 17.5664C57.3912 17.3643 57.3978 17.1599 57.41 16.9564Z" fill="white"/>
<path d="M70.1764 16.9639C70.6152 16.9466 71.0548 16.9616 71.4941 16.956C71.4636 17.2067 71.4073 17.4536 71.3914 17.7062C71.4969 17.6936 71.5536 17.5996 71.6178 17.5275C71.9727 17.1215 72.515 16.9242 73.0494 16.9555C72.927 17.1922 72.822 17.4368 72.703 17.6749C72.6092 17.8896 72.6087 18.1295 72.5516 18.3545C72.2741 18.3728 71.9534 18.3115 71.7247 18.5107C71.4177 18.717 71.2648 19.079 71.2034 19.4313C71.0834 20.0431 70.9592 20.6544 70.8364 21.2653C70.7825 21.5338 70.7802 21.8088 70.737 22.0787C70.2388 22.0777 69.7405 22.0777 69.2422 22.0791C69.4592 21.3382 69.5708 20.5739 69.7184 19.8176C69.8403 19.1469 69.9687 18.4775 70.0916 17.8073C70.1539 17.5308 70.1759 17.2464 70.1764 16.9639Z" fill="white"/>
<path d="M78.4386 21.0038C78.6457 21.0192 78.859 21.1231 78.9603 21.3116C79.2575 21.6703 78.8932 22.2536 78.4507 22.2218C78.0143 22.2349 77.6975 21.6858 77.9501 21.3233C78.0471 21.1385 78.2426 21.0468 78.4386 21.0038ZM78.1943 21.146C78.0237 21.247 77.9215 21.4407 77.9168 21.6366C77.9281 21.8565 78.0748 22.0637 78.2843 22.1376C78.4587 22.1713 78.6406 22.1479 78.8 22.0679C78.6879 21.9468 78.5932 21.812 78.4957 21.6792C78.4189 21.6801 78.342 21.6801 78.2661 21.6811C78.2403 21.7765 78.3317 21.987 78.1892 21.9982C78.1493 21.7391 78.1821 21.4743 78.1718 21.2133C78.3425 21.2208 78.5304 21.1815 78.6884 21.2643C78.8009 21.319 78.7836 21.4598 78.7639 21.5618C78.724 21.6002 78.6589 21.6221 78.6443 21.6797C78.6809 21.7681 78.7301 21.8509 78.7667 21.9397C78.7896 21.9514 78.8351 21.9748 78.8581 21.986C78.9495 21.8448 79.0334 21.6675 78.9725 21.4977C78.9336 21.32 78.7939 21.1899 78.6439 21.0992C78.4948 21.088 78.327 21.0557 78.1943 21.146ZM78.2656 21.2821C78.2651 21.3831 78.2651 21.4851 78.2656 21.5866C78.3762 21.5871 78.4868 21.5927 78.5979 21.5828C78.6964 21.5431 78.6987 21.4201 78.6584 21.3368C78.5328 21.2877 78.3992 21.2741 78.2656 21.2821Z" fill="white"/>
<path d="M51.7386 22.9819C51.8201 23.0137 51.8529 23.1185 51.7972 23.1877C51.7489 23.1297 51.7306 23.0558 51.7386 22.9819Z" fill="white"/>
<path d="M51.8047 23.2256C51.8586 23.3056 51.8952 23.3949 51.9238 23.4866L51.8952 23.4861C51.8577 23.4019 51.8206 23.3163 51.8047 23.2256Z" fill="white"/>
<path d="M54.3448 27.8198C54.3636 27.8249 54.4016 27.8361 54.4203 27.8413C54.53 27.9811 54.6519 28.1112 54.7695 28.2445C54.6228 28.1079 54.4808 27.9666 54.3448 27.8198Z" fill="white"/>
<path d="M63.9777 4.16793C64.491 4.1539 65.0019 4.08561 65.5156 4.09356C66.3167 4.07532 67.1108 4.20722 67.9006 4.32509C68.3966 4.37935 68.8719 4.53791 69.3571 4.6483C69.711 4.72174 70.0419 4.86861 70.3817 4.98788C70.6738 5.10435 70.9799 5.18808 71.2602 5.33354C71.7144 5.56928 72.1939 5.75638 72.628 6.02954C72.831 6.15162 73.0339 6.27277 73.2374 6.39438C73.6227 6.60627 73.9517 6.90188 74.3042 7.16148C74.7369 7.46925 75.1011 7.85841 75.5047 8.20174C75.8778 8.5633 76.2106 8.96275 76.566 9.34162C76.8627 9.73453 77.1613 10.126 77.4519 10.5231C77.6361 10.8211 77.8175 11.1204 78.0003 11.4193C78.26 11.8328 78.4377 12.2893 78.6636 12.7211C78.793 12.9685 78.8717 13.2374 78.9749 13.4956C79.1033 13.853 79.2594 14.2015 79.3475 14.5719C79.4464 14.9601 79.5721 15.3423 79.6527 15.7352C79.7403 16.4059 79.8739 17.0725 79.8885 17.7507C79.9771 18.6249 79.9283 19.5061 79.791 20.3733C79.7146 20.8331 79.6874 21.3037 79.5519 21.7518C79.4113 22.2279 79.3138 22.7181 79.1263 23.1798C78.9861 23.546 78.8656 23.9202 78.7096 24.2799C78.4822 24.7107 78.3027 25.1658 78.0538 25.5849C77.78 26.0003 77.5489 26.4446 77.2391 26.8352C77.0028 27.1448 76.7755 27.4615 76.5341 27.7669C76.1375 28.179 75.7817 28.6313 75.3477 29.0069C75.185 29.1575 75.0181 29.3034 74.855 29.4536C74.5438 29.7567 74.1777 29.9938 73.8402 30.2651C73.4535 30.5818 73.0035 30.8044 72.5821 31.0692C72.1349 31.3414 71.6455 31.5322 71.1828 31.775C70.8622 31.9195 70.5252 32.0229 70.1975 32.1492C69.6031 32.3891 68.9741 32.5224 68.3586 32.6946C67.8355 32.783 67.3096 32.8592 66.7836 32.9284C66.4827 32.9144 66.1855 32.9836 65.885 32.956C65.3549 32.949 64.8242 32.9476 64.2946 32.9607C63.6983 32.892 63.1053 32.7942 62.5105 32.7128C62.0502 32.6001 61.5917 32.4771 61.1324 32.3601C60.6655 32.1875 60.1972 32.0178 59.7346 31.8344C59.2217 31.5673 58.6836 31.3447 58.2013 31.0229C57.8422 30.7904 57.4606 30.5902 57.1227 30.3269C56.8175 30.1052 56.5091 29.8867 56.2072 29.6608C56.0577 29.5093 55.895 29.3713 55.745 29.2207C55.9513 28.9844 56.2405 28.8287 56.4106 28.5607C55.9639 28.5494 55.5172 28.5625 55.0705 28.5537C54.9678 28.4526 54.8675 28.3497 54.7696 28.2445C54.6519 28.1112 54.53 27.9811 54.4203 27.8413C55.3171 27.8216 56.2147 27.8347 57.1119 27.8347C57.3735 27.5171 57.6561 27.2145 57.8881 26.874C56.4791 26.8698 55.07 26.8754 53.661 26.8717C53.4997 26.6247 53.3474 26.3726 53.1894 26.1237C54.9327 26.1195 56.676 26.1345 58.4192 26.1163C58.5791 25.794 58.8219 25.5143 58.9377 25.1714C56.9896 25.1583 55.0419 25.17 53.0938 25.1653C52.9363 25.1597 52.776 25.1854 52.6203 25.156C52.5139 24.9114 52.4108 24.6658 52.3096 24.4193C54.6453 24.4174 56.9811 24.4151 59.3169 24.4207C59.4978 24.1326 59.6071 23.8089 59.7106 23.4871C57.1152 23.4782 54.5192 23.4791 51.9238 23.4866C51.8952 23.3949 51.8586 23.3056 51.8047 23.2256L51.7972 23.1877C51.853 23.1185 51.8202 23.0137 51.7386 22.9819C51.7185 22.9225 51.6983 22.8626 51.6786 22.8037C51.6796 22.7813 51.6814 22.7364 51.6819 22.7144C54.2 22.7036 56.7186 22.713 59.2367 22.7092C59.4936 22.7074 59.751 22.7186 60.0078 22.6999C60.0833 22.3902 60.2038 22.0913 60.2455 21.7742C59.4969 21.7705 58.7483 21.7817 57.9997 21.7681C58.0171 21.5067 58.0616 21.2485 58.123 20.994C58.8781 21.0066 59.6342 21.0076 60.3894 20.9931C60.4583 21.176 60.6247 21.2892 60.7456 21.4351C60.8961 21.617 61.1094 21.7321 61.3156 21.8406C61.6822 21.9964 62.0713 22.1091 62.4692 22.1437C62.9825 22.1549 63.5178 22.1858 64.0006 21.9777C64.0452 21.7653 64.0138 21.5422 64.0789 21.3331C64.1286 21.1568 64.191 20.9842 64.2669 20.8172C64.3039 20.7592 64.2838 20.6961 64.2528 20.6418C63.8263 20.8387 63.3585 20.9407 62.8902 20.9585C62.5663 20.9645 62.2691 20.8167 61.9996 20.6535C61.5406 20.2774 61.2646 19.6577 61.3916 19.065C61.5092 18.5543 61.6428 18.0159 62 17.6141C62.1547 17.4205 62.3249 17.2203 62.5639 17.1305C62.7327 17.0706 62.8972 16.9817 63.0805 16.9803C63.4658 16.9733 63.8558 16.9789 64.2336 17.0626C64.4366 17.1043 64.6147 17.2151 64.8078 17.2853C64.9105 17.0837 64.8688 16.854 64.9142 16.6393C64.9438 16.4499 65.0164 16.2633 64.9972 16.0687C64.8238 15.9246 64.5814 15.8966 64.3677 15.847C63.8553 15.7212 63.3219 15.6819 62.7974 15.7371C62.4158 15.7993 62.0239 15.8811 61.701 16.1047C61.3831 16.2871 61.0958 16.5229 60.8656 16.8087C60.7592 16.9616 60.6561 17.1174 60.5558 17.2745C60.5821 17.0584 60.5103 16.8465 60.4874 16.6337C57.4836 16.6216 54.4794 16.6351 51.4756 16.6267C51.523 16.3844 51.5713 16.1421 51.6205 15.9003C54.5417 15.9054 57.463 15.905 60.3842 15.9008C60.3242 15.5804 60.2277 15.2684 60.1583 14.9503C57.2746 14.9386 54.3903 14.9484 51.5066 14.9456C51.5872 14.6968 51.6739 14.4498 51.7456 14.1982C54.4696 14.1944 57.1935 14.1982 59.9174 14.1968C59.8306 13.897 59.7355 13.5967 59.5991 13.3156C59.5775 13.258 59.5358 13.2328 59.4735 13.2403C57.0116 13.2314 54.5488 13.2501 52.0874 13.2309C52.1881 12.9797 52.2974 12.7318 52.4113 12.4858C54.6814 12.4914 56.9511 12.4895 59.2213 12.4867C59.0741 12.1673 58.9344 11.8384 58.7211 11.5559C56.7833 11.5578 54.8446 11.5461 52.9067 11.562C52.9044 11.5405 52.8992 11.4979 52.8969 11.4764C53.0375 11.2435 53.1758 11.0096 53.3244 10.7818C54.9674 10.7799 56.6103 10.7883 58.2533 10.7776C58.0321 10.4563 57.8085 10.1326 57.5408 9.84772C56.3553 9.84445 55.1699 9.84912 53.9844 9.84538C54.1297 9.64846 54.2839 9.45809 54.4222 9.25603C54.4752 9.18259 54.5319 9.08109 54.6397 9.09887C55.3499 9.09512 56.06 9.10261 56.7702 9.09606C56.4167 8.7083 56.0581 8.32288 55.663 7.97629C55.7647 7.85608 55.888 7.75879 56.0056 7.65495C56.2855 7.35279 56.6436 7.1409 56.9638 6.88598C57.4316 6.51038 57.965 6.23067 58.4671 5.90466C58.8875 5.67967 59.3272 5.49258 59.7514 5.27461C60.2028 5.09874 60.658 4.93175 61.1127 4.76337C61.566 4.63567 62.0202 4.51219 62.4744 4.38777C62.9746 4.30872 63.4775 4.24698 63.9777 4.16793ZM76.7689 15.7642C76.6663 16.3302 76.5716 16.8975 76.4736 17.4644C76.4553 17.5206 76.4403 17.6118 76.3625 17.6029C76.2664 17.5402 76.1952 17.4485 76.1375 17.3517C75.8853 17.1478 75.5853 16.9939 75.2647 16.9368C74.9436 16.9228 74.6146 16.9307 74.3047 17.021C73.9752 17.1524 73.626 17.2853 73.3864 17.5594C73.2341 17.7484 73.0522 17.9158 72.9327 18.1296C72.7869 18.4097 72.6327 18.6955 72.5999 19.0145C72.5324 19.2222 72.5333 19.4411 72.4789 19.6507L72.5558 19.653C72.5347 19.6638 72.4925 19.6857 72.471 19.697C72.4794 19.9009 72.4808 20.1053 72.4691 20.3092L72.5314 20.284C72.4639 20.4893 72.5708 20.7073 72.6196 20.9089C72.6749 21.1488 72.8225 21.3472 72.9617 21.5445C73.2861 21.8968 73.7666 22.0679 74.2325 22.1269C74.6764 22.1021 75.1175 21.9622 75.4883 21.7148C75.5778 21.6503 75.6158 21.5324 75.7175 21.4814C75.7292 21.5534 75.741 21.6264 75.7527 21.6989L75.7067 21.7017C75.7138 21.8275 75.7016 21.9534 75.6833 22.0778C76.1605 22.0787 76.6372 22.0778 77.1144 22.0787C77.1252 21.8032 77.1369 21.5263 77.1927 21.2559C77.4688 19.7161 77.7411 18.1754 78.0158 16.6356C78.0758 16.3409 78.1738 16.0556 78.2431 15.7633C77.7514 15.7651 77.2602 15.7623 76.7689 15.7642ZM65.6806 17.1146C65.5503 17.1305 65.5583 17.2745 65.5278 17.3714C65.4556 17.6548 65.391 17.9397 65.3206 18.2236C65.9328 18.0627 66.5666 17.9789 67.1994 18.0136C67.4174 18.0337 67.6789 18.0664 67.8036 18.2727C67.9213 18.456 68.016 18.7315 67.8622 18.921C67.6742 18.9018 67.4863 18.884 67.2992 18.9177C66.7677 18.9158 66.2263 18.9495 65.7233 19.1352C65.3263 19.269 64.986 19.5529 64.7764 19.914C64.5622 20.2531 64.5111 20.6731 64.5585 21.0651C64.6325 21.5474 64.9888 21.988 65.4711 22.11C66.0346 22.2579 66.6538 22.1545 67.1586 21.8701C67.2913 21.7967 67.3714 21.6147 67.5331 21.6096C67.5303 21.7578 67.5308 21.9061 67.5313 22.0549C67.9541 22.0549 68.3769 22.0549 68.7997 22.0549C68.7496 21.8065 68.8049 21.5553 68.8142 21.306C68.9656 20.4332 69.1021 19.5576 69.2666 18.6876C69.2994 18.5038 69.2952 18.3157 69.2825 18.1305C69.2591 17.8723 69.0903 17.6665 68.946 17.464C68.8377 17.3003 68.646 17.2273 68.4847 17.1286C68.0544 16.884 67.5416 16.8835 67.0625 16.9265C66.598 16.9354 66.1297 16.9906 65.6806 17.1146ZM70.1764 16.9639C70.176 17.2465 70.1539 17.5309 70.0916 17.8073C69.9688 18.4776 69.8403 19.1469 69.7185 19.8176C69.5708 20.574 69.4592 21.3383 69.2422 22.0792C69.7405 22.0778 70.2388 22.0778 70.7371 22.0787C70.7802 21.8088 70.7825 21.5338 70.8364 21.2653C70.9592 20.6544 71.0835 20.0431 71.2035 19.4313C71.2649 19.0791 71.4177 18.717 71.7247 18.5108C71.9535 18.3115 72.2741 18.3728 72.5516 18.3545C72.6088 18.1296 72.6092 17.8896 72.703 17.6749C72.8221 17.4368 72.9271 17.1922 73.0494 16.9555C72.515 16.9242 71.9727 17.1216 71.6178 17.5276C71.5536 17.5996 71.4969 17.6936 71.3914 17.7063C71.4074 17.4537 71.4636 17.2067 71.4941 16.956C71.0549 16.9616 70.6152 16.9466 70.1764 16.9639ZM78.4386 21.0038C78.2427 21.0469 78.0472 21.1385 77.9502 21.3233C77.6975 21.6858 78.0144 22.2349 78.4508 22.2218C78.8933 22.2536 79.2575 21.6704 78.9603 21.3116C78.8591 21.1231 78.6458 21.0193 78.4386 21.0038Z" fill="#FF8000"/>
<path d="M75.0402 18.0879C75.3233 18.0627 75.6571 18.1052 75.8464 18.3415C76.0939 18.573 76.0672 18.943 76.0588 19.2517C75.9969 19.5889 75.981 19.9477 75.7967 20.2475C75.665 20.5992 75.343 20.8593 74.9825 20.9524C74.7585 20.958 74.5095 20.9889 74.3155 20.8523C73.963 20.6409 73.8641 20.1909 73.8814 19.8088C73.8561 19.4229 74.0052 19.0562 74.1641 18.7133C74.3633 18.413 74.66 18.1104 75.0402 18.0879Z" fill="#FF8000"/>
<path d="M51.0008 19.2905C51.3439 19.3012 51.6875 19.2905 52.0306 19.2975C51.9959 19.5225 51.9692 19.7493 51.9664 19.9771C51.6031 19.9724 51.2398 19.972 50.8761 19.9771C50.9192 19.7484 50.9619 19.5197 51.0008 19.2905Z" fill="#FF8000"/>
<path d="M58.4754 19.3139C58.9939 19.3209 59.5119 19.3195 60.0303 19.3148C60.0326 19.5609 60.0167 19.8097 60.065 20.0529C59.4837 20.0819 58.9011 20.0614 58.3198 20.0637C58.3723 19.8139 58.429 19.5651 58.4754 19.3139Z" fill="#FF8000"/>
<path d="M67.0241 19.8214C67.2355 19.7989 67.4502 19.8078 67.6625 19.8139C67.7581 19.8602 67.7071 19.9697 67.6916 20.0478C67.6156 20.3934 67.4788 20.7485 67.1919 20.9744C66.9088 21.1736 66.5206 21.234 66.1981 21.0979C66.0777 21.0207 65.9277 20.9407 65.9 20.7863C65.8583 20.53 65.9235 20.2269 66.1494 20.0712C66.3927 19.8597 66.7236 19.8635 67.0241 19.8214Z" fill="#FF8000"/>
<path d="M78.1944 21.146C78.327 21.0557 78.4948 21.088 78.6439 21.0992C78.7939 21.19 78.9336 21.32 78.9725 21.4977C79.0334 21.6675 78.9495 21.8448 78.8581 21.9861C78.8352 21.9748 78.7897 21.9515 78.7667 21.9398C78.7302 21.8509 78.6809 21.7681 78.6444 21.6797C78.6589 21.6222 78.7241 21.6002 78.7639 21.5618C78.7836 21.4599 78.8009 21.3191 78.6884 21.2643C78.5305 21.1815 78.3425 21.2208 78.1719 21.2134C78.1822 21.4744 78.1494 21.7391 78.1892 21.9982C78.3317 21.987 78.2403 21.7765 78.2661 21.6811C78.342 21.6802 78.4189 21.6802 78.4958 21.6792C78.5933 21.8121 78.688 21.9468 78.8 22.0679C78.6406 22.1479 78.4587 22.1713 78.2844 22.1376C78.0748 22.0637 77.9281 21.8565 77.9169 21.6367C77.9216 21.4407 78.0237 21.247 78.1944 21.146Z" fill="#FF8000"/>
<path d="M78.2656 21.2822C78.3992 21.2742 78.5328 21.2878 78.6584 21.3369C78.6987 21.4201 78.6964 21.5432 78.598 21.5829C78.4869 21.5927 78.3762 21.5871 78.2656 21.5867C78.2651 21.4852 78.2651 21.3832 78.2656 21.2822Z" fill="#FF8000"/>
<path d="M44.5508 4.48086C45.1794 4.44344 45.8085 4.40743 46.4394 4.42005C47.0028 4.45888 47.5686 4.48507 48.1283 4.5688C48.537 4.63755 48.9463 4.70772 49.3531 4.78583C50.2002 5.00239 51.0599 5.19884 51.8553 5.57023C52.9175 5.99915 53.9038 6.59459 54.8263 7.26813C55.107 7.50201 55.3878 7.73588 55.663 7.9763C56.0581 8.32289 56.4167 8.70831 56.7702 9.09607C56.06 9.10262 55.3499 9.09513 54.6397 9.09888C54.5319 9.0811 54.4752 9.1826 54.4222 9.25604C54.2839 9.4581 54.1297 9.64847 53.9844 9.84539C55.1699 9.84913 56.3553 9.84446 57.5408 9.84773C57.8085 10.1326 58.032 10.4563 58.2533 10.7776C56.6103 10.7884 54.9674 10.7799 53.3244 10.7818C53.1758 11.0096 53.0375 11.2435 52.8969 11.4764C52.8336 11.5232 52.8369 11.5517 52.9067 11.562C54.8445 11.5461 56.7833 11.5578 58.7211 11.5559C58.9344 11.8384 59.0741 12.1673 59.2213 12.4867C56.9511 12.4895 54.6814 12.4914 52.4113 12.4858C52.2974 12.7318 52.1881 12.9797 52.0874 13.2309C54.5488 13.2501 57.0116 13.2314 59.4735 13.2403C59.5358 13.2328 59.5775 13.258 59.5991 13.3156C59.7355 13.5967 59.8306 13.897 59.9174 14.1968C57.1935 14.1982 54.4695 14.1945 51.7456 14.1982C51.6739 14.4498 51.5872 14.6968 51.5066 14.9457C54.3903 14.9485 57.2745 14.9386 60.1583 14.9503C60.2277 15.2684 60.3242 15.5804 60.3842 15.9008C57.463 15.905 54.5417 15.9055 51.6205 15.9003C51.6266 15.8722 51.6383 15.8152 51.6439 15.7871C51.1827 15.7885 50.721 15.7848 50.2597 15.789C50.226 16.0453 50.2161 16.3049 50.1706 16.5598C49.9185 17.8761 49.6592 19.1909 49.4085 20.5076C49.3527 20.8645 49.2824 21.2452 49.4178 21.5932C49.4684 21.7457 49.5538 21.9024 49.7103 21.9679C49.8917 22.045 50.0792 22.1199 50.2766 22.1442C50.6839 22.1592 51.0983 22.1559 51.4953 22.0525C51.5886 21.669 51.6899 21.2873 51.7799 20.9033C51.5085 20.943 51.2174 21.0015 50.9563 20.8855C50.8475 20.8167 50.7842 20.6858 50.7992 20.5581C50.8124 20.363 50.8386 20.1689 50.8761 19.9771C51.2399 19.972 51.6031 19.9725 51.9664 19.9771C51.9538 20.5071 52.1558 21.0324 52.4942 21.4379C52.6681 21.6456 52.9058 21.7864 53.1453 21.9071C53.4336 22.0544 53.7613 22.0848 54.0777 22.1264C54.3575 22.1657 54.6416 22.1503 54.9228 22.1292C55.3147 22.1302 55.7089 22.0549 56.0652 21.8888C56.1463 21.4898 56.2081 21.0871 56.2864 20.6876C55.6311 20.9762 54.8942 21.1975 54.177 21.0272C53.8395 20.9627 53.4884 20.7859 53.345 20.4566C53.2438 20.2985 53.226 20.0988 53.2972 19.9252C54.3444 19.9299 55.3916 19.9238 56.4388 19.928C56.4805 19.6853 56.5461 19.4472 56.5986 19.2068C56.6249 18.892 56.6183 18.5725 56.556 18.2619C56.502 17.8064 56.1772 17.434 55.8097 17.1838C55.5214 17.022 55.1975 16.9392 54.8717 16.8975C54.4649 16.8615 54.0388 16.876 53.6638 17.0538C53.473 17.1454 53.2667 17.2091 53.0942 17.3349C52.4985 17.8167 52.1272 18.5435 52.0306 19.2975C51.6875 19.2905 51.3439 19.3013 51.0008 19.2905C51.0711 18.8943 51.1456 18.4991 51.2164 18.1029C51.4883 18.1024 51.7606 18.102 52.033 18.1034C52.1019 17.7217 52.16 17.3377 52.2285 16.956C51.9542 16.9569 51.68 16.9555 51.4058 16.9569C51.4306 16.8475 51.4531 16.7371 51.4756 16.6267C54.4794 16.6351 57.4836 16.6216 60.4874 16.6337C60.5103 16.8466 60.582 17.0584 60.5558 17.2745C60.1995 17.8924 60.0528 18.6085 60.0303 19.3148C59.5119 19.3195 58.9939 19.3209 58.4755 19.3139C58.5425 18.9926 58.6813 18.6558 58.9733 18.4757C59.1922 18.305 59.4875 18.3475 59.7453 18.363C59.8231 18.1212 59.8635 17.8672 59.9699 17.6352C60.0716 17.4083 60.1672 17.1782 60.2755 16.9541C59.9464 16.9541 59.6089 16.9916 59.3038 17.1188C59.0825 17.2689 58.9114 17.4822 58.7436 17.688C58.6405 17.7666 58.648 17.638 58.6527 17.5678C58.678 17.3629 58.7174 17.1604 58.7455 16.9565C58.3002 16.9569 57.8553 16.9565 57.41 16.9565C57.3978 17.1599 57.3913 17.3643 57.3631 17.5664C57.1466 18.7825 56.923 19.9977 56.7078 21.2148C56.6535 21.5067 56.5592 21.7892 56.4913 22.0782C56.9811 22.0801 57.471 22.0745 57.9608 22.0815C57.9772 21.9777 57.9917 21.8729 57.9997 21.7681C58.7483 21.7817 59.4969 21.7705 60.2455 21.7742C60.2038 22.0913 60.0833 22.3902 60.0078 22.6999C59.751 22.7186 59.4936 22.7074 59.2367 22.7092C56.7186 22.713 54.2 22.7036 51.6819 22.7144C51.6149 22.7303 51.6139 22.7602 51.6786 22.8037C51.6983 22.8627 51.7185 22.9225 51.7386 22.9819C51.7306 23.0558 51.7489 23.1297 51.7972 23.1877L51.8047 23.2256C51.8206 23.3164 51.8577 23.402 51.8952 23.4862L51.9238 23.4866C54.5192 23.4791 57.1152 23.4782 59.7106 23.4871C59.607 23.8089 59.4978 24.1326 59.3169 24.4207C56.9811 24.4151 54.6453 24.4174 52.3095 24.4193C52.4108 24.6658 52.5139 24.9114 52.6203 25.156C52.776 25.1855 52.9363 25.1597 53.0938 25.1653C55.0419 25.17 56.9895 25.1583 58.9377 25.1714C58.8219 25.5143 58.5791 25.794 58.4192 26.1163C56.676 26.1345 54.9327 26.1195 53.1894 26.1237C53.3474 26.3726 53.4997 26.6247 53.661 26.8717C55.07 26.8754 56.4791 26.8698 57.8881 26.874C57.6561 27.2145 57.3735 27.5172 57.1119 27.8347C56.2147 27.8347 55.317 27.8217 54.4203 27.8413C54.4016 27.8362 54.3636 27.8249 54.3449 27.8198C54.4808 27.9667 54.6228 28.1079 54.7695 28.2445C54.8675 28.3497 54.9678 28.4526 55.0705 28.5537C55.5172 28.5626 55.9639 28.5495 56.4106 28.5607C56.2405 28.8287 55.9513 28.9845 55.745 29.2207C55.6583 29.3109 55.5608 29.3895 55.4586 29.4611C55.3264 29.5504 55.2303 29.6837 55.0902 29.7632C54.7906 29.9401 54.5389 30.1861 54.2399 30.3648C53.8527 30.5996 53.4875 30.8732 53.0717 31.058C52.6297 31.2909 52.1863 31.5234 51.7274 31.7217C51.3022 31.8882 50.87 32.0341 50.4331 32.166C49.9911 32.3288 49.527 32.4167 49.0663 32.5103C48.3088 32.6656 47.5377 32.739 46.767 32.7895C46.4389 32.7905 46.1103 32.7881 45.7822 32.7905C45.013 32.7451 44.2522 32.6141 43.4914 32.4995C43.0349 32.384 42.5769 32.2732 42.1213 32.1553C41.6863 32.0065 41.2545 31.8484 40.8214 31.6946C40.4094 31.4902 39.9978 31.2839 39.5863 31.0781C39.1667 30.8306 38.7458 30.5865 38.3272 30.3372C37.9836 30.0874 37.6489 29.8255 37.3044 29.5766C37.1445 29.4732 37.0325 29.3161 36.8844 29.1991C36.5305 28.8671 36.1625 28.5476 35.848 28.1767C35.6689 27.9971 35.5053 27.8034 35.3239 27.6266C35.045 27.2482 34.7586 26.8745 34.4788 26.4965C34.2936 26.1995 34.1099 25.9016 33.9247 25.6046C33.687 25.2556 33.5389 24.858 33.3519 24.4824C33.0735 23.9361 32.8944 23.3472 32.6713 22.778C32.5508 22.3168 32.4289 21.8556 32.3141 21.393C32.2428 20.9608 32.1716 20.5286 32.0975 20.0974C32.0469 19.8799 32.0891 19.6553 32.0511 19.436C32.0216 18.6525 32.0145 17.8662 32.0825 17.0851C32.1617 16.6309 32.2335 16.1753 32.3127 15.7216C32.4449 15.2469 32.5686 14.7698 32.7097 14.2978C32.9455 13.7365 33.1367 13.1547 33.425 12.6163C33.5525 12.3291 33.6964 12.0499 33.8366 11.7687C34.092 11.3712 34.3433 10.9708 34.6044 10.5769C34.8795 10.2102 35.1533 9.84259 35.4303 9.47775C35.6806 9.24481 35.8953 8.97867 36.1414 8.74199C36.5155 8.35049 36.936 8.00717 37.3297 7.63625C37.7038 7.3556 38.0727 7.06794 38.4463 6.78636C38.8185 6.56184 39.1874 6.33125 39.5605 6.10813C39.9556 5.91496 40.3466 5.7143 40.7422 5.52205C41.1641 5.35928 41.5897 5.20539 42.012 5.04355C42.4377 4.9168 42.8628 4.7891 43.2894 4.66609C43.7089 4.59873 44.1313 4.54962 44.5508 4.48086ZM34.6353 15.76C34.5936 15.9719 34.6035 16.1894 34.5608 16.4013C34.3785 17.3662 34.1966 18.3307 34.0133 19.2952C33.822 20.2321 33.6974 21.1844 33.425 22.103C33.8488 22.096 34.273 22.1101 34.6963 22.0956C34.7295 21.5011 34.8458 20.9168 34.9635 20.3345C35.172 19.2292 35.3849 18.1244 35.5949 17.0196C35.608 17.0047 35.6338 16.9738 35.6464 16.9583C35.7814 18.6693 35.8864 20.3831 36.0064 22.0951C36.4095 22.1101 36.8131 22.097 37.2163 22.1021C37.9241 20.4374 38.616 18.7652 39.3139 17.0959C39.3374 17.0322 39.3772 16.9803 39.4325 16.9401C39.2113 18.3036 38.997 19.668 38.78 21.0319C38.7313 21.3953 38.6253 21.7471 38.5363 22.1021C38.997 22.1012 39.4574 22.1016 39.9177 22.1016C39.9491 21.8088 39.9477 21.5123 40.002 21.2223C40.2556 19.7531 40.512 18.2844 40.7656 16.8152C40.8163 16.4565 40.941 16.1145 41.0249 15.7633C40.2613 15.7642 39.4977 15.7637 38.7341 15.7633C38.1852 17.0603 37.6461 18.3616 37.1042 19.6614C37.063 19.7451 37.0461 19.8813 36.9224 19.864C36.9167 19.6123 36.936 19.3593 36.9031 19.109C36.8825 18.6268 36.9242 18.1422 36.875 17.6614C36.8727 17.3017 36.8788 16.9415 36.8731 16.5818C36.8389 16.3105 36.8549 16.0364 36.8516 15.7637C36.1128 15.7609 35.3741 15.7689 34.6353 15.76ZM42.4967 16.9336C42.1911 16.9719 41.8789 16.9967 41.5925 17.1207C41.5081 17.4649 41.4795 17.8227 41.3469 18.1544C41.548 18.0702 41.7669 18.051 41.9774 18.0028C42.2413 17.9369 42.5145 17.979 42.7813 17.9387C43.1038 17.9481 43.4689 17.8891 43.7455 18.0945C43.9855 18.2138 44.076 18.5052 44.0483 18.7568C43.5449 18.7559 43.0391 18.7447 42.5399 18.8186C42.2352 18.9013 41.9075 18.9144 41.6281 19.0744C41.2836 19.2203 40.9981 19.4902 40.821 19.8177C40.715 19.9814 40.6245 20.161 40.611 20.3584C40.4952 20.6694 40.5627 21.0095 40.6578 21.3168C40.7558 21.5937 40.9695 21.813 41.2119 21.9711C41.7763 22.263 42.4611 22.1704 43.0166 21.9042C43.1999 21.8042 43.3377 21.6432 43.491 21.5057L43.5435 21.5385C43.566 21.7078 43.5097 21.8827 43.5041 22.0549C43.9428 22.0558 44.382 22.053 44.8213 22.0563C44.7852 21.9183 44.7913 21.7737 44.8035 21.633C44.907 20.5511 45.1438 19.487 45.3088 18.413C45.418 17.9925 45.1836 17.5659 44.8789 17.2876C44.586 17.0683 44.2344 16.9247 43.8678 16.8971C43.4108 16.8643 42.9524 16.8929 42.4967 16.9336ZM46.4286 17.2282C45.8938 17.5935 45.6636 18.3045 45.8024 18.9243C45.8685 19.2985 46.1806 19.5716 46.5083 19.7292C46.7385 19.864 46.9892 19.9566 47.2335 20.0623C47.4214 20.103 47.5635 20.2414 47.6745 20.3911C47.8433 20.7157 47.5072 21.0707 47.1833 21.0951C46.8542 21.1025 46.5247 21.0993 46.1985 21.0544C45.912 21.0581 45.6303 20.9893 45.358 20.9066C45.3861 21.2756 45.3256 21.6386 45.2656 22.0011C45.77 22.1302 46.2945 22.1582 46.8134 22.1484C47.4097 22.0923 48.0486 22.0731 48.568 21.7368C48.7447 21.6465 48.8113 21.4496 48.8985 21.285C49.0517 20.9884 49.0756 20.6498 49.0878 20.3223C49.0916 19.9982 48.95 19.6792 48.7199 19.4528C48.4002 19.1998 48.0228 19.0379 47.6492 18.8812C47.4383 18.7924 47.2658 18.5894 47.233 18.3606C47.2738 18.1455 47.4753 17.95 47.7031 17.9616C48.1719 17.9532 48.6435 17.971 49.1056 18.0477C49.1413 17.6796 49.2767 17.3344 49.3695 16.9789C49.1122 16.9911 48.8563 16.964 48.6003 16.9443C48.3988 16.9172 48.1939 16.9499 47.9928 16.9177C47.7238 16.8849 47.4561 16.9345 47.1875 16.934C46.9086 16.9495 46.6616 17.0865 46.4286 17.2282Z" fill="#FF0000"/>
<path d="M54.2722 17.9481C54.6018 17.8957 54.9796 18.0248 55.1478 18.3265C55.25 18.5005 55.31 18.7166 55.2468 18.9149C54.6885 18.9252 54.1297 18.9243 53.5719 18.9158C53.4046 18.8691 53.4857 18.6721 53.5138 18.5557C53.6643 18.2615 53.9357 18.0019 54.2722 17.9481Z" fill="#FF0000"/>
<path d="M42.4813 19.827C42.8314 19.6825 43.2223 19.6619 43.5959 19.6979C43.633 19.7045 43.7066 19.7171 43.7431 19.7236C43.7741 20.0974 43.6222 20.4589 43.4033 20.7545C43.1769 21.0272 42.8023 21.1105 42.4625 21.0913C42.2731 21.0852 42.118 20.9566 42.0073 20.8144C41.8695 20.5731 41.9291 20.2293 42.1405 20.0473C42.2417 19.9566 42.3402 19.8518 42.4813 19.827Z" fill="#FF0000"/>
<path d="M58.3199 20.0637C58.9011 20.0613 59.4838 20.0819 60.065 20.0529C60.1142 20.3836 60.2516 20.6909 60.3894 20.9931C59.6342 21.0076 58.8781 21.0066 58.123 20.994C58.19 20.6839 58.2542 20.3738 58.3199 20.0637Z" fill="#FF0000"/>
<path d="M52.9067 11.562C52.8369 11.5517 52.8336 11.5232 52.8969 11.4764C52.8992 11.4979 52.9044 11.5405 52.9067 11.562Z" fill="#FF6040"/>
<path d="M51.6786 22.8037C51.6139 22.7602 51.6148 22.7303 51.6818 22.7144C51.6814 22.7363 51.6795 22.7812 51.6786 22.8037Z" fill="#FF7040"/>
</g>
<defs>
<clipPath id="clip0_16965_89923">
<rect width="48" height="29" fill="white" transform="translate(32 4)"/>
</clipPath>
</defs>
</svg>
