<svg xmlns="http://www.w3.org/2000/svg" width="500" height="500" fill="none"><g clip-path="url(#a)"><path fill="#F7FDFF" d="M0 0h500v500H0z"/><path fill="#7FD061" fill-rule="evenodd" d="M239.794 289.7c-9.011 6.381-12.551 7.668-19.507 7.091-3.975-.33-7.064-1.513-12.451-4.768-10.42-6.296-19.241-6.585-26.506-.87-1.426 1.121-7.12 7.851-12.655 14.955-11.87 15.236-15.938 18.23-24.75 18.217-6.495-.01-9.809-1.511-21.578-9.773-6.333-4.447-8.192-5.324-9.144-4.317-.658.696-28.018 40.824-60.8 89.173C-12.108 494.55-12.59 491.207-6.589 499.5H508.41l1.089-7.293c0-1.9-3.703-4.707-4.344-5.9-.359-.307-6.95-8.65-14.662-20.006l-14.022-20.646-1.205 4.083c-.664 2.245-2.225 5.513-3.469 7.261-2.234 3.136-9.499 9.001-11.151 9.001-.468 0-.85-5.21-.85-11.577 0-11.462-.029-11.606-2.923-14.5-3.793-3.793-7.361-3.793-11.154 0-2.891 2.891-2.923 3.048-2.923 14.406 0 11.375-.021 11.478-2.222 10.903-1.223-.32-4.346-2.705-6.942-5.3-8.502-8.503-9.606-17.996-4.12-35.432 3.047-9.683 5.967-15.622 10.789-21.938l3.635-4.763-11.675-17.149a6407 6407 0 0 1-21.227-31.4L401.483 335h-18.131c-20.37 0-23.243.74-28.732 7.399-3.577 4.339-10.392 7.056-15.858 6.323-4.97-.666-17.303-8.398-16.546-10.372.285-.742.387-1.35.226-1.35s-4.731 6.476-10.157 14.392l-9.865 14.392-27.564-40.697-27.564-40.697zm-56.642 106.857c-1.73.875-4.061 2.571-5.18 3.767-6.548 7.004-14.131 25.403-15.63 37.924-1.307 10.913 4.359 22.111 13.562 26.807l3.893 1.986v-12.346c0-11.846.1-12.441 2.477-14.674 3.102-2.914 8.046-2.941 10.933-.06 1.833 1.83 2.151 3.625 2.59 14.601l.5 12.515 4.709-2.991c12.943-8.219 15.293-20.534 8.083-42.349-6.394-19.346-17.041-29.682-25.937-25.18m82.145.28c-7.595 4.632-14.835 17.199-18.69 32.443-3.931 15.543-.972 27.072 8.644 33.688 2.423 1.668 4.888 3.032 5.476 3.032.692 0 1.07-3.691 1.07-10.435 0-5.739.447-11.609.992-13.045 1.34-3.524 6.406-5.626 10.295-4.27 4.317 1.505 5.713 5.861 5.713 17.825 0 9.242.155 10.08 1.75 9.477 5.786-2.188 11.845-8.83 14.095-15.451 4.566-13.436-6.488-44.553-18.767-52.827-4.079-2.749-6.615-2.854-10.578-.437" clip-rule="evenodd"/><path fill="#52B823" d="m293.297 379.5 16-23 93.5 143h-32z"/><path fill="#C56E37" d="M179.797 437h15.5l2.5 62.5h-18zm81 0h19v62.5h-19zm181 0 18.5.5.5 62h-19z"/><path fill="#67C846" d="m375.297 476.5-128-192c-4.8 4.4-9 6.5-10.5 7l133.5 207.5s6.543-4.181 8-8.5c1.787-5.298-3-14-3-14"/><path fill="#FCDD2E" fill-rule="evenodd" d="M446.195 396.502c-7.543 4.363-18.106 26.497-20.008 41.926-1.053 8.543 1.411 15.854 7.344 21.788 2.596 2.595 5.719 4.98 6.942 5.3 2.201.575 2.222.472 2.222-10.903 0-11.358.032-11.515 2.923-14.406 1.762-1.762 3.977-2.923 5.577-2.923s3.815 1.161 5.577 2.923c2.894 2.894 2.923 3.038 2.923 14.5 0 6.367.382 11.577.85 11.577 1.622 0 8.899-5.839 11.061-8.875 1.196-1.679 3.042-5.699 4.104-8.933 1.601-4.876 1.769-6.872.987-11.681-4.436-27.254-19.239-46.809-30.502-40.293" clip-rule="evenodd"/><path fill="#FBE77B" d="M177.87 400.608c1.119-1.196 3.45-2.892 5.18-3.767 8.896-4.502 19.543 5.834 25.937 25.18 7.21 21.815 4.86 34.13-8.083 42.349l-4.709 2.991-.5-12.515c-.439-10.976-.757-12.771-2.59-14.601-2.887-2.881-7.831-2.854-10.933.06-2.377 2.233-2.477 2.828-2.477 14.674v12.346l-3.893-1.986c-9.203-4.696-14.869-15.894-13.562-26.807 1.499-12.521 9.082-30.92 15.63-37.924"/><path fill="#DCF5FF" d="M165.448 232.784c9.333-13.75 18.044-25.574 19.358-26.276 2.903-1.55 7.787-.796 10.036 1.55 1.886 1.968 50.798 73.921 51.509 75.774.514 1.34-11.164 9.915-16.624 12.206-6.123 2.569-13.68 1.292-21.961-3.711-10.454-6.317-19.264-6.612-26.538-.89-1.426 1.121-7.12 7.851-12.655 14.955-11.868 15.233-15.937 18.228-24.75 18.22-6.52-.006-9.064-1.155-21.32-9.635l-8.692-6.013 17.335-25.59c9.534-14.075 24.97-36.84 34.302-50.59"/><path fill="#97E4F9" d="M322.135 338.578c1.236-3.223 33.962-50.463 35.896-51.818 3.158-2.211 6.296-1.793 9.543 1.274 1.601 1.512 9.677 12.762 17.946 25l15.035 22.25h-17.719c-19.913 0-22.854.768-28.319 7.399-3.577 4.339-10.392 7.056-15.858 6.323-5.075-.681-17.303-8.398-16.524-10.428M124.396 58.241c3.011-5.853 9.429-10.582 15.913-11.724 11.03-1.944 22.551 5.48 24.629 15.87.349 1.742 2.114 4.647 3.923 6.456 1.945 1.945 3.573 4.795 3.98 6.97.429 2.281 1.256 3.678 2.179 3.678 2.511 0 8.018 6.363 9.347 10.8 2.444 8.157-3.082 17.725-11.605 20.091-2.185.607-11.927 1.1-21.781 1.103l-17.828.006 3.582 4.185c6.233 7.282 7.18 15.289 2.824 23.879-1.801 3.553-4.246 6.461-7.087 8.43l-4.336 3.006H32.809l-4.666-2.743c-10.2-5.996-15.347-15.674-14.673-27.591.745-13.196 8.95-23.188 21.728-26.458 3.363-.86 5.715-2.272 7.682-4.61 3.25-3.862 7.895-6.098 12.669-6.098 2.748 0 3.62-.587 5.179-3.48 2.542-4.72 8.235-10.28 13.08-12.776 5.67-2.92 16.61-3.49 22.5-1.172 7.342 2.888 11.885 2.344 16.163-1.934 2.823-2.823 4.436-3.638 7.203-3.638 2.687 0 3.85-.554 4.722-2.25"/><path fill="#9CE4F3" d="M299.575 86.534c3.754-18.92 19.541-35.394 39.12-40.823 6.229-1.728 20.396-1.697 26.992.058 22.865 6.085 39.829 27.045 40.104 49.55l.079 6.465 5.707-5.586c6.841-6.696 12.453-8.914 22.546-8.913 12.596 0 23.513 7.152 29.003 18.999 1.402 3.025 2.554 6.701 2.559 8.168.007 1.955.927 3.236 3.439 4.788 3.874 2.395 7.571 9.109 7.571 13.751 0 2.38.523 3.207 2.311 3.656 4.548 1.142 10.39 6.397 13.054 11.742 3.017 6.054 3.558 14.75 1.26 20.25-1.961 4.694-7.263 10.403-12.03 12.954-4.057 2.171-4.553 2.191-54.116 2.191h-50.021l-6.687-3.292c-9.877-4.862-16.499-13.553-18.232-23.928-.655-3.923-.963-4.259-4.372-4.769-2.017-.302-5.814-1.034-8.438-1.627-4.679-1.059-4.845-1.012-8.672 2.445-2.677 2.419-5.26 3.725-8.229 4.163-2.38.351-18.278.497-35.328.323-33.802-.343-33.706-.328-39.914-6.472-6.853-6.783-8.368-16.374-3.978-25.184 2.869-5.758 7.555-9.569 13.867-11.28 2.187-.593 4.577-1.935 5.311-2.984 1.75-2.499 6.469-4.895 9.639-4.895 1.738 0 2.971-.856 3.96-2.75 3.374-6.46 11.231-11.25 18.453-11.25h3.902z"/><path fill="#FBE77B" d="M246.607 429.28c3.855-15.244 11.095-27.811 18.69-32.443 3.963-2.417 6.499-2.312 10.578.437 12.279 8.274 23.333 39.391 18.767 52.827-2.25 6.621-8.309 13.263-14.095 15.451-1.595.603-1.75-.235-1.75-9.477 0-11.964-1.396-16.32-5.713-17.825-3.889-1.356-8.955.746-10.295 4.27-.545 1.436-.992 7.306-.992 13.045 0 6.744-.378 10.435-1.07 10.435-.588 0-3.053-1.364-5.476-3.032-9.616-6.616-12.575-18.145-8.644-33.688"/><path fill="#97E4F9" d="m196.797 210 50.5 74.5-10.5 7-56-81s3-6 8-6 8 5.5 8 5.5"/><circle cx="351.797" cy="98" r="54" fill="#FBE77B"/><path fill="#FCDD2E" fill-rule="evenodd" d="M352.411 152.728c29.824 0 54-24.177 54-54a53.9 53.9 0 0 0-3.26-18.521c-2.307 1.338-4.526 3.118-6.892 5.434l-5.707 5.586c-1.225 1.199-2.526 4.167-3.023 5.5-12.8-2-19.319 6.167-20.978 10.501-34.522 3.5-30.29 34.856-29.635 38.779a32 32 0 0 0 1.189 4.805 54 54 0 0 0 14.306 1.916" clip-rule="evenodd"/><path fill="#CBF0FF" d="M352.302 157.279c-.655-3.923-4.887-35.279 29.634-38.779 1.66-4.333 8.179-12.5 20.979-10.5.497-1.334 1.798-4.302 3.023-5.501l5.707-5.586c6.841-6.696 12.453-8.914 22.546-8.913 12.596.001 23.513 7.152 29.003 18.999 1.402 3.025 2.554 6.701 2.559 8.168.007 1.955.927 3.236 3.439 4.788 3.874 2.395 7.571 9.109 7.571 13.751 0 2.38.523 3.207 2.311 3.656 4.548 1.142 10.39 6.397 13.054 11.742 3.017 6.054 3.558 14.75 1.26 20.25-1.961 4.694-7.263 10.403-12.03 12.954-4.057 2.171-4.553 2.191-54.116 2.191h-50.021l-6.687-3.292c-9.877-4.862-16.499-13.553-18.232-23.928M73.809 67.811c5.669-2.92 16.61-3.49 22.5-1.172 6.701 3.548 19.902 13.844 19.102 26.644 3.667.784 10.9 5.415 10.5 17.675 2.216.088 7.483 1.27 10.824 5.294 6.233 7.282 7.18 15.289 2.824 23.879-1.801 3.553-4.246 6.461-7.087 8.43l-4.336 3.006H32.809l-4.666-2.743c-10.2-5.996-15.347-15.674-14.673-27.591.745-13.196 8.95-23.188 21.728-26.458 3.363-.86 5.715-2.272 7.682-4.61 3.25-3.862 7.895-6.098 12.669-6.098 2.748 0 3.62-.587 5.179-3.48 2.542-4.72 8.235-10.28 13.08-12.776"/></g><defs><clipPath id="a"><path fill="#fff" d="M0 0h500v500H0z"/></clipPath></defs></svg>
